<?xml version="1.0" encoding="UTF-8" standalone="no"?>
<svg
   xmlns:dc="http://purl.org/dc/elements/1.1/"
   xmlns:cc="http://creativecommons.org/ns#"
   xmlns:rdf="http://www.w3.org/1999/02/22-rdf-syntax-ns#"
   xmlns:svg="http://www.w3.org/2000/svg"
   xmlns="http://www.w3.org/2000/svg"
   xmlns:sodipodi="http://sodipodi.sourceforge.net/DTD/sodipodi-0.dtd"
   xmlns:inkscape="http://www.inkscape.org/namespaces/inkscape"
   width="350.85062mm"
   height="263.28897mm"
   viewBox="0 0 350.85062 263.28897"
   version="1.1"
   id="svg8"
   inkscape:version="1.0.1 (3bc2e813f5, 2020-09-07)"
   sodipodi:docname="gothDuck.svg">
  <defs
     id="defs2">
    <clipPath
       clipPathUnits="userSpaceOnUse"
       id="clipPath1020">
      <circle
         style="opacity:1;fill:#ffaaaa;fill-rule:evenodd;stroke:#ffffff;stroke-width:0.865;stroke-linecap:round;stroke-miterlimit:4;stroke-dasharray:none;stroke-dashoffset:248.504;paint-order:stroke markers fill"
         id="circle1022"
         cx="852.22296"
         cy="138.80399"
         r="218.62648" />
    </clipPath>
    <clipPath
       clipPathUnits="userSpaceOnUse"
       id="clipPath1056">
      <circle
         style="opacity:1;fill:#ffaaaa;fill-rule:evenodd;stroke:#ffffff;stroke-width:0.714001;stroke-linecap:round;stroke-miterlimit:4;stroke-dasharray:none;stroke-dashoffset:248.504;paint-order:stroke markers fill"
         id="circle1058"
         cx="425.62872"
         cy="62.442211"
         r="180.46196" />
    </clipPath>
  </defs>
  <sodipodi:namedview
     id="base"
     pagecolor="#ffffff"
     bordercolor="#666666"
     borderopacity="1.0"
     inkscape:pageopacity="0.0"
     inkscape:pageshadow="2"
     inkscape:zoom="0.24748737"
     inkscape:cx="693.82039"
     inkscape:cy="481.84215"
     inkscape:document-units="mm"
     inkscape:current-layer="layer1"
     inkscape:document-rotation="0"
     showgrid="false"
     inkscape:window-width="1267"
     inkscape:window-height="730"
     inkscape:window-x="83"
     inkscape:window-y="0"
     inkscape:window-maximized="0" />
  <metadata
     id="metadata5">
    <rdf:RDF>
      <cc:Work
         rdf:about="">
        <dc:format>image/svg+xml</dc:format>
        <dc:type
           rdf:resource="http://purl.org/dc/dcmitype/StillImage" />
        <dc:title></dc:title>
      </cc:Work>
    </rdf:RDF>
  </metadata>
  <g
     inkscape:label="Layer 1"
     inkscape:groupmode="layer"
     id="layer1"
     transform="translate(51.639793,-15.56565)">
    <path
       style="fill:#1a1a1a;stroke:#1a1a1a;stroke-width:0.264583px;stroke-linecap:butt;stroke-linejoin:miter;stroke-opacity:1"
       d="m 210.91071,55.562499 c 6.67959,-4.666623 10.30241,-15.286328 18.14286,-21.166666 7.89795,-5.923463 10.64875,-13.261878 20.41071,-18.142857 8.44836,-4.22418 33.70775,17.076785 36.6637,20.032739 3.26213,3.262137 -2.01385,20.658642 -3.77976,24.190475 -1.07413,2.148224 1.10286,10.614377 0,11.717261 -2.32979,2.329783 -10.27176,0.822351 -12.47322,3.023809 -5.75378,5.753774 -14.25053,11.982672 -20.03274,17.764881"
       id="path949"
       sodipodi:nodetypes="cssssssc" />
    <path
       style="fill:#cccccc;stroke:#cccccc;stroke-width:0.264583px;stroke-linecap:butt;stroke-linejoin:miter;stroke-opacity:1"
       d="m 272.89881,58.208333 c -0.0816,9.294013 15.59539,23.056548 25.32441,23.056548"
       id="path955" />
    <path
       style="fill:#ffffff;stroke:#ffffff;stroke-width:0.264583px;stroke-linecap:butt;stroke-linejoin:miter;stroke-opacity:1"
       d="m 120.5744,178.25359 c 0.85476,4.53008 -4.1066,11.06358 -1.88988,15.49702 3.45187,6.90373 56.34368,17.96649 66.52381,23.05655 2.44733,1.22366 15.86167,-4.52238 17.00893,-5.66964 0.40086,-0.40086 -1.34285,-2.0988 -1.51191,-2.26786 -1.24886,-1.24886 -5.2575,-4.84537 -6.04761,-6.42559 -0.20458,-0.40915 -29.86744,-5.66965 -32.88393,-5.66965 -11.04178,0 -24.33097,-3.92025 -29.10417,-8.69345 -0.17149,-0.1715 -0.75595,-9.27228 -0.75595,-11.33929 0,-0.45 -5.49639,1.51191 -11.33929,1.51191 z"
       id="path979" />
    <path
       style="fill:#000000;stroke:#000000;stroke-width:0.264583px;stroke-linecap:butt;stroke-linejoin:miter;stroke-opacity:1"
       d="m 196.92559,60.854166 c -26.8606,-14.44857 -46.41106,-38.79636 -79.75297,-32.127976 -7.42019,1.484038 -11.16838,-3.243364 -17.386906,-0.755951 -20.712632,2.366782 -49.420141,5.574903 -64.633928,20.78869 -1.531066,1.531065 -9.29443,11.717262 -11.717262,11.717262 -0.853077,0 5.125707,-2.479874 8.693452,-6.04762 C 32.878128,53.67842 25.451022,58.837669 20.78869,63.5 17.072596,67.216094 7.7335905,71.350467 2.2678571,74.083333 c -3.7050828,1.852542 -5.9292769,9.76821 -9.8273809,11.717262 -11.8300482,5.915024 -15.7519842,23.689485 -23.8125002,31.750005 -4.12304,4.12304 -11.019595,7.3564 -13.229166,13.98511 -1.270252,3.81076 2.060771,-1.71899 3.401785,-0.37797 1.527496,1.52749 -4.055243,6.3231 -4.535714,6.80357 -0.585843,0.58584 1.511905,0.67491 1.511905,1.5119 0,2.39419 -8.294373,12.11635 -7.181548,13.22917 1.233306,1.23331 5.85075,-1.5119 6.425595,-1.5119 7.36743,0 30.048416,2.07817 33.639881,5.66964 1.7827506,1.78275 5.3907471,1.61098 7.5595241,3.77976 10.4807453,10.48075 18.6965809,11.23817 31.7499999,17.76488 6.09311,3.04656 17.439776,-2.80838 24.568453,0.75595 8.57955,4.28978 18.825638,6.578 26.836309,10.58334 6.429543,3.21477 19.001699,-3.1267 22.67857,-6.80357 3.81181,-3.81181 32.13848,-4.35198 37.79762,-7.18155 12.05038,-6.02519 24.14141,-13.93605 33.26191,-23.05655 16.95265,-1.94027 29.87591,-14.24237 44.97916,-19.27678 2.6109,-0.87031 7.73588,-1.31029 9.44941,-3.02381 5.85591,-5.85592 9.12531,-13.28305 12.85119,-17.00893 1.99125,-1.99126 4.91369,-6.92701 4.91369,-10.20536 0,-3.02502 8.16119,-13.383454 4.53571,-17.008929 -2.69551,-2.695513 -9.64522,-4.353553 -10.20536,-4.91369 -0.84426,-0.844269 -0.65821,-5.096195 -1.13392,-6.047619 -1.50196,-3.003904 -9.25599,-5.854197 -11.33929,-7.9375 -4.00943,-4.009429 -2.27741,-10.592885 -5.66964,-13.985119 -0.53875,-0.538747 -2.58185,1.889881 -3.40179,1.889881 -1.22466,0 -5.57283,-1.230738 -6.42559,-0.377976 -2.10661,2.106607 -3.8498,4.192754 -6.80357,5.669643 -1.779,0.889495 -5.90565,-0.0284 -7.93751,0.377975 z"
       id="path947" />
    <path
       style="fill:#ffffff;stroke:#ffffff;stroke-width:0.264583px;stroke-linecap:butt;stroke-linejoin:miter;stroke-opacity:1"
       d="m 280.83631,30.616072 c -1.1321,-0.406649 -6.94036,-2.509049 -8.31548,-1.13393 -7.53279,7.532785 0.56825,19.46706 5.29167,24.190476 1.43629,1.436293 4.97948,0.131569 6.0476,2.267857 0.98478,1.969553 4.15775,-6.777707 4.15775,-9.071427 0,-7.892762 -1.97538,-12.348358 -7.18154,-16.252976 z"
       id="path951" />
    <path
       style="fill:#ffffff;stroke:#ffffff;stroke-width:0.264583px;stroke-linecap:butt;stroke-linejoin:miter;stroke-opacity:1"
       d="m 287.2619,47.247024 c -0.34184,4.536027 0.11362,7.673149 2.26785,9.827381 2.46812,2.46811 4.52295,7.911939 6.04764,10.961309 0.7802,1.560431 4.87169,11.759255 3.02379,13.607142 -0.40463,0.404646 -10.37995,-10.001985 -11.33928,-10.961309 -0.98387,-0.983884 -17.19312,-10.39914 -14.74107,-12.85119 1.78983,-1.789822 7.06734,0.492199 8.69344,-1.13393 0.86318,-0.863166 -1.35482,-2.42493 -0.37796,-3.401785 1.91535,-1.915361 4.90832,-3.013041 6.42559,-6.047618 z"
       id="path953" />
    <path
       style="fill:#ffffff;stroke:#000000;stroke-width:0.264583px;stroke-linecap:butt;stroke-linejoin:miter;stroke-opacity:1"
       d="m 264.01636,42.333333 c -10.3079,-4.760275 0.37798,9.064754 0.37798,3.401785 0,-1.183439 0.15582,-2.334197 -0.37798,-3.401785 z"
       id="path957" />
    <path
       style="fill:#ffffff;stroke:#ffffff;stroke-width:0.264583px;stroke-linecap:butt;stroke-linejoin:miter;stroke-opacity:1"
       d="m 78.619047,177.11966 c -8.016507,8.02282 -4.91369,16.39104 -4.91369,27.59226 0,7.88224 1.133927,16.5517 1.133927,24.56846 0,4.25996 0.527836,13.30742 -1.511903,17.3869 -0.936451,1.8729 -4.365556,6.76591 -3.023809,9.4494 1.606232,3.21247 3.001219,7.91491 4.913688,9.82739 1.005051,1.00504 4.376817,-0.1589 5.291666,0.75595 0.36535,0.36534 6.425597,3.80448 6.425597,3.40178 0,-0.0577 -5.260903,-3.43255 -3.401785,-5.29166 0.503968,-0.50397 2.141863,0.12599 2.645833,-0.37798 1.021054,-1.02106 1.989974,-3.1239 3.779761,-4.91369 0.03336,-0.0334 -1.846998,-9.74162 -2.267857,-10.58333 -5.463405,-10.92681 -5.551054,-32.60233 -2.267858,-45.73512 0.932053,-3.72821 8.657617,-14.39893 4.535715,-18.52084 -4.365302,-4.3653 -3.562688,-6.0042 -11.339285,-7.55952 z"
       id="path977" />
    <path
       style="fill:#000000;fill-opacity:1;stroke:#000000;stroke-width:0.264583px;stroke-linecap:butt;stroke-linejoin:miter;stroke-opacity:1"
       d="m 187.2872,217.71429 c 3.03649,5.14995 -0.87669,13.86439 3.59077,18.33184 0.30384,0.30385 -0.12776,1.76213 0.18899,2.07887 2.23514,2.23515 3.68736,4.86749 6.80357,6.4256 1.58201,0.791 3.57399,0.65307 4.91369,1.32291 1.467,0.7335 -3.62735,-1.35949 -4.91369,-2.64583 -0.23104,-0.23104 2.7039,-1.94795 3.02381,-2.26786 0.437,-0.437 0.25268,-2.89643 0,-3.40178 -0.40337,-0.80675 -2.45685,-2.0359 -2.45685,-1.13393 0,0.0482 1.3997,-2.68127 0.75596,-3.96875 -0.62356,-1.24712 -1.52329,-5.46927 -1.32292,-5.66964 0.75142,-0.75142 1.88988,1.67125 1.88988,2.45684 0,1.56813 3.81791,4.4603 5.10268,5.10268 1.38999,0.695 3.325,1.05715 4.34672,2.07887 1.10841,1.1084 7.3507,-4.17758 9.07143,-2.45685 0.56461,0.56461 0.37716,2.45521 0.75596,3.2128 0.16716,0.33434 0.004,1.70178 0.75595,1.88988 2.65048,0.66263 9.77674,5.99698 11.71726,7.9375 1.59112,1.59112 5.32596,1.35721 6.80357,2.83482 0.32507,0.32507 0.11928,1.13393 0.94494,1.13393 0.7084,0 2.79739,2.79739 3.2128,3.2128 1.54085,1.54085 3.12034,-2.35623 4.15774,0.75595 0.65608,1.96824 0.75208,4.16547 0.75595,4.15774 4.76021,-9.52043 -7.96688,-16.09337 -13.04018,-21.16667 -1.83052,-1.83051 -7.47292,-4.26538 -8.88244,-6.61458 -0.20874,-0.3479 -3.59077,-3.30924 -3.59077,-2.83482 0,0.56696 1.13393,0 1.70089,0 1.53002,0 2.54599,0.51704 3.77976,1.13393 1.65443,0.82722 4.13501,1.05578 5.66964,2.07887 1.32186,0.88124 2.66701,2.47801 3.77977,3.59077 1.72718,1.72719 8.17013,1.88988 11.15029,1.88988 1.5706,0.22531 3.83214,0.61934 4.9137,1.70089 1.34144,1.34145 1.45301,3.90986 3.02381,5.48066 1.71085,1.71086 10.46574,4.05554 12.47321,4.7247 2.64969,0.88323 6.05521,-0.38557 7.18155,-1.5119 0.6668,-0.66681 3.28649,1.58559 3.59077,1.88988 1.40864,1.40864 3.3186,-1.08103 3.96875,-0.75595 1.33171,0.66585 5.93542,6.42559 6.99256,6.42559 0.16758,0 -0.51668,-1.46163 -0.56696,-1.5119 -0.72244,-0.72244 -0.41237,-3.24719 -1.13393,-3.96875 -0.94785,-0.94785 -2.93784,-2.1389 -3.77976,-3.40179 -4.24614,-6.36921 -12.76803,-7.85433 -17.5759,-12.6622 -1.05997,-1.05997 -4.31444,-1.47963 -5.85863,-3.02381 -1.22813,-1.22813 -4.30763,-0.71686 -5.66964,-2.07887 -3.32389,-3.32389 -9.3694,-4.30672 -13.60714,-6.4256 -3.21259,-1.60629 -5.32074,-4.07778 -8.50447,-5.66964 -1.06772,-0.53386 -3.64553,-1.34117 -4.7247,-1.70089 -0.69931,-0.23311 -1.8038,0.32652 -2.45684,0 -0.90236,-0.45118 -2.59708,-1.36966 -4.15774,-1.88988 -1.13052,-0.37684 -2.44619,0.004 -3.59078,-0.37798 -6.3302,-2.11007 -10.96668,-3.97412 -14.55208,-7.55952 -0.61528,-0.61528 -15.87127,-3.59078 -18.14286,-3.59078 4.29856,1.36833 8.00107,0.15188 11.33929,4.15774 0.3861,0.46332 1.6427,0.82855 1.88988,1.32292 0.0933,0.18653 -0.32429,0.5949 -0.37798,0.75595 -0.94386,2.83158 -2.72577,0.60693 -4.91369,1.70089 -0.80987,0.40494 -0.29544,1.47064 -1.13393,1.88988 -0.42896,0.21448 -1.9722,-0.10666 -2.26785,0.18899 -0.50397,0.50397 0.31498,2.33086 -0.18899,2.83482 -0.40329,0.4033 -1.39298,0.25906 -1.88988,0.75596 -0.5661,0.56609 -0.34655,2.03696 -0.94494,2.83482 z"
       id="path981" />
    <path
       style="fill:#000000;stroke:#000000;stroke-width:0.264583px;stroke-linecap:butt;stroke-linejoin:miter;stroke-opacity:1"
       d="m 89.240687,260.31291 c 6.474785,3.55232 25.984993,-1.55959 30.994043,0.94494 1.41016,0.70508 3.93804,-0.32522 5.48066,0.18899 2.54229,0.84743 5.67362,-0.28149 8.12648,0.94494 1.40523,0.70261 2.40653,1.41126 3.02381,2.64583 0.0421,0.0842 -0.0317,1.13393 0,1.13393 1.07126,0 -4.1323,-2.10431 -4.7247,-1.51191 -0.63407,0.63407 0.25608,1.77862 -0.94494,2.07887 -0.87503,0.21876 -2.64583,-0.335 -2.64583,0.56697 0,0.22021 7.33814,0.49317 8.12648,0.75595 1.69552,0.42384 3.45924,0.58611 5.10268,1.13393 2.74031,0.91343 5.99756,-1.65459 8.69346,-0.75595 2.91587,0.97195 6.56842,-0.614 9.63839,0 2.59603,0.5192 6.65322,0.94494 9.63839,0.94494 2.5351,0 6.06314,2.18112 8.12649,3.21279 0.57211,0.28606 1.50105,0.65603 2.07887,0.94494 0.0971,0.0486 0.56696,0.66224 0.56696,0.56697 0,-0.0798 -3.74538,0.11168 -3.96875,0 -1.70023,-0.85012 -4.40993,-0.37798 -5.85863,-0.37798 -2.50223,0 -5.32928,0.52912 -7.74851,1.13393 -2.67311,0.66828 -6.11548,-0.75595 -8.69345,-0.75595 -0.62898,0 -3.89653,-0.63919 -4.15774,-0.37798 -0.62614,0.62614 -1.72266,0.77772 -2.26786,1.32292 -1.52174,1.52174 -6.05309,0.2376 -8.12648,0.75595 -2.2292,0.5573 -8.86508,1.68353 -10.01637,2.83482 -0.30238,0.30238 -2.52338,-0.37797 -3.02381,-0.37797 -1.0703,0 -2.92721,-0.80215 -3.59078,-1.13393 -0.24671,-0.12336 -1.26206,0.44204 -1.5119,0.56696 -0.11561,0.0578 -6.98918,-0.50284 -7.18155,-0.56696 -1.43851,-0.47951 -1.81575,-0.90788 -3.02381,-1.51191 -0.98715,-0.49357 -3.84121,1.49142 -5.48065,0.94494 -1.76782,-0.58927 -4.67213,-1.27034 -5.66964,-2.26785 -0.567888,-0.56789 -5.935448,0.52899 -6.992563,0.37797 -2.331831,-0.33312 -5.341821,-2.12902 -6.803571,-3.59077 -0.510357,-0.51036 -2.932921,-0.19856 -3.590774,-0.37798 -2.957398,-0.80656 -6.831181,-2.97073 -8.504464,-5.48065 -0.379386,-0.56908 -3.071908,-3.54268 -1.889881,-4.7247 1.51298,-1.51298 8.338798,1.32624 9.638393,1.5119 3.084274,0.44061 4.581674,-2.35086 7.181547,-1.70089 z"
       id="path983" />
  </g>
</svg>
